<svg width="83" height="100" viewBox="0 0 83 100" xmlns="http://www.w3.org/2000/svg">
    <g fill="none" fill-rule="evenodd">
        <path d="M58.65 47.985c2.858.06 5.44-1.381 7.55-3.196 1.053-.905 2.119-1.906 2.805-3.127.746-1.326.676-2.915 1.382-4.24.268-.504.697-1.001 1.325-.888.74.132.821.911.89 1.532.163 1.46.198 2.972-.17 4.405-.381 1.475-1.232 2.617-2.295 3.68a59.886 59.886 0 0 1-3.45 3.167 71.006 71.006 0 0 1-8.531 6.238c-.272.17-.472.576-.22.844.267.286.756.136 1.033-.037a71.195 71.195 0 0 0 8.352-6.085 70.315 70.315 0 0 0 3.693-3.346c1.096-1.07 2.07-2.23 2.618-3.679.556-1.471.644-3.101.542-4.657-.086-1.295-.171-2.868-1.694-3.209-1.344-.3-2.626.473-3.319 1.593-.872 1.41-.73 3.184-1.59 4.598-.868 1.43-2.325 2.639-3.69 3.576-1.464 1.005-3.106 1.675-4.901 1.637-.775-.017-1.351 1.172-.33 1.194" fill="#ECEDEF"/>
        <path d="M12.203 66.685c7.854-23.407 5.37-72.533 43.14-57.734 7.218 4.656 7.503 14.827 8.088 23.396a101.79 101.79 0 0 0 6.2 28.67c.732 1.954 1.473 4.32.199 5.971-2.03 2.632-6.42.47-9.486 1.751-5.746 4.983-6.903 5.012-13.331.798-6.183-2.018-12.562 7.536-18.179 4.255-2.624-2.524-5.507-4.407-9.29-2.87-3.162 1.562-9.77.327-7.623-4.16" fill="#D1E5E8"/>
        <path d="M25.897 15.815c-9.839-18.636 9.707-8.596 7.325-3.577-1.235 2.177-4.963 5.995-7.345 3.39M52.841 11.008c.704 2.232 3.13 5.552 5.774 4.953 1.505-.341 2.785-1.887 3.242-3.931.208-.93.453-1.852.724-2.766.444-1.5.235-2.288-.137-2.729-1.692-2.008-9.352.13-9.803 3.2-.063.427.033.743.2 1.273" fill="#6EA2FD"/>
        <path d="M36.698 24.586c.752-3.128-2.866-4.88-2.285.255.088 3.028 2.398 3.59 2.285-.255M51.086 24.875c1.018-2.906-2.275-5.447-2.21-.267-.206 2.997 1.95 4.072 2.21.267" fill="#000"/>
        <path d="m57.014 53.97 2.538 8.4c.21.693 1.643.084 1.425-.634l-2.538-8.4c-.21-.692-1.642-.083-1.425.635M36.071 53.633c.37 4.754.4 9.526.092 14.284-.05.772 1.448.363 1.494-.343.309-4.758.278-9.53-.092-14.284-.062-.797-1.548-.363-1.494.343M23.981 52.429a182.765 182.765 0 0 1-3.453 9.63c-.14.359.27.58.564.579a.981.981 0 0 0 .895-.616 183.031 183.031 0 0 0 3.452-9.63c.119-.363-.253-.58-.564-.579-.375.002-.775.253-.894.616" fill="#87A6AB"/>
        <path d="M54.125 81.705c-8.544-.182-33.965-.627-34.136 8.167-.042 2.118 1.491 3.952 3.55 4.51 13.44 3.641 56.979-.744 33.742-11.892-.82-.393-2.245-.765-3.156-.785" fill="#F4F4F4"/>
        <path d="M74.44 38.771c-.062-.931-.167-2.092-.816-2.824-.716-.806-2.242-.788-3.17-.392-.38.161-.721.427-.922.779-.008.007-.017.013-.023.02-.76.798-.934 1.935-.756 2.987.199 1.172.734 2.256.812 3.45.041.637-.009 1.273-.03 1.91-.016.503.008 1.041.446 1.37.884.659 2.187-.068 2.777-.793.682-.84 1.077-1.958 1.346-2.993.296-1.14.415-2.338.336-3.514" fill="#6EA2FD"/>
    </g>
</svg>
