<svg xmlns="http://www.w3.org/2000/svg" width="34" height="34" viewBox="0 0 34 34">
    <g fill="none" fill-rule="evenodd">
        <g>
            <g>
                <g>
                    <g>
                        <g>
                            <path d="M0 0H34V34H0z" transform="translate(-1001.000000, -521.000000) translate(849.000000, 157.000000) translate(28.000000, 364.000000) translate(46.000000, 0.000000) translate(78.000000, 0.000000)"/>
                            <g>
                                <path fill="#D0D4DA" d="M17 0C7.626 0 0 7.626 0 17c0 9.374 7.626 17 17 17 9.374 0 17-7.626 17-17 0-9.374-7.626-17-17-17" transform="translate(-1001.000000, -521.000000) translate(849.000000, 157.000000) translate(28.000000, 364.000000) translate(46.000000, 0.000000) translate(78.000000, 0.000000)"/>
                                <path fill="#FFF" d="M17 32c4.023 0 7.666-1.592 10.36-4.17C25.847 23.564 21.787 20.5 17 20.5c-4.787 0-8.848 3.064-10.36 7.332C9.334 30.408 12.977 32 17 32M17 7c3.314 0 6 2.686 6 6s-2.686 6-6 6-6-2.686-6-6 2.686-6 6-6" transform="translate(-1001.000000, -521.000000) translate(849.000000, 157.000000) translate(28.000000, 364.000000) translate(46.000000, 0.000000) translate(78.000000, 0.000000)"/>
                            </g>
                        </g>
                    </g>
                </g>
            </g>
        </g>
    </g>
</svg>
